<svg version="1.1" xmlns="http://www.w3.org/2000/svg" xmlns:xlink="http://www.w3.org/1999/xlink" width="157.6148681640625" height="31.780000686645508"><defs></defs><g transform="translate(-80.88904571533203,12)"><rect fill="rgb(255,255,255)" stroke="none" x="0" y="0" width="157.6148681640625" height="31.780000686645508" fill-opacity="0" transform="translate(80.88904571533203,-12)"></rect><g transform="translate(79.55995178222656,16) rotate(0,0,0) translate(-79.55995178222656,-16) matrix(1,0,0,1,79.55995178222656,16)"><path fill="rgb(255,255,255)" fill-opacity="1" d="M1.46-10.38L1.46-10.38Q1.22-10.48 1.42-10.79Q1.61-11.10 2.33-11.34L2.33-11.34Q3.05-11.58 4.39-12.02Q5.74-12.45 7.25-12.93Q8.76-13.41 10.27-13.89Q11.78-14.37 12.89-14.70L12.89-14.70Q13.18-14.61 12.94-14.18Q12.70-13.74 12.02-13.50L12.02-13.50Q11.50-13.36 10.49-13.02Q9.48-12.69 8.26-12.30Q7.03-11.92 5.78-11.51Q4.54-11.10 3.58-10.77L3.58-10.77Q4.97-10.10 6.89-9.26Q8.81-8.42 10.49-7.60L10.49-7.60Q10.73-7.41 10.37-7.07Q10.01-6.74 9.38-6.83L9.38-6.83Q8.71-7.12 7.68-7.60Q6.65-8.08 5.52-8.58Q4.39-9.09 3.31-9.57Q2.23-10.05 1.46-10.38ZM23.11-16.10L23.11-16.10Q23.35-16 23.30-15.81Q23.26-15.62 22.87-15.57L22.87-15.57Q22.10-15.52 21.17-15.47Q20.23-15.42 19.27-15.33L19.27-15.33Q18.31-12.93 17.69-10.72Q17.06-8.51 17.06-7.07L17.06-7.07Q17.06-5.44 18.31-5.44L18.31-5.44Q19.56-5.44 21.05-7.65L21.05-7.65Q21.19-7.74 21.34-7.62Q21.48-7.50 21.43-7.26L21.43-7.26Q21.00-6.59 20.45-5.99Q19.90-5.39 19.32-4.96Q18.74-4.53 18.22-4.26Q17.69-4 17.35-4L17.35-4Q16.30-4 15.79-4.65Q15.29-5.30 15.29-6.21L15.29-6.21Q15.29-7.79 15.96-10.19Q16.63-12.59 17.64-15.14L17.64-15.14Q17.02-15.04 16.44-14.94Q15.86-14.85 15.34-14.75L15.34-14.75Q15.10-14.80 15.22-14.99Q15.34-15.18 15.65-15.38Q15.96-15.57 16.39-15.74Q16.82-15.90 17.21-15.90L17.21-15.90Q17.45-15.95 17.62-15.95Q17.78-15.95 17.98-15.95L17.98-15.95Q18.65-17.44 19.32-18.81Q19.99-20.18 20.66-21.33L20.66-21.33Q20.95-21.62 21.31-21.83Q21.67-22.05 22.01-22.12Q22.34-22.19 22.54-22.17Q22.73-22.14 22.68-22L22.68-22Q21.86-20.75 21.07-19.22Q20.28-17.68 19.56-16.05L19.56-16.05Q20.42-16.05 21.29-16.07Q22.15-16.10 23.11-16.10ZM34.39-7.02L34.39-7.02Q34.49-7.12 34.63-7.02Q34.78-6.93 34.73-6.74L34.73-6.74Q33.72-5.34 32.74-4.67Q31.75-4 31.08-4L31.08-4Q30.65-4 30.38-4.43Q30.12-4.86 30.05-5.61Q29.98-6.35 30.10-7.29Q30.22-8.22 30.50-9.23L30.50-9.23Q29.21-7.22 27.77-5.75Q26.33-4.29 24.98-4L24.98-4Q24.12-4 23.52-4.84Q22.92-5.68 22.92-7.46L22.92-7.46Q22.92-9.04 23.57-10.60Q24.22-12.16 25.32-13.43Q26.42-14.70 27.86-15.47Q29.30-16.24 30.89-16.24L30.89-16.24Q31.75-16.24 32.38-16.05Q33.00-15.86 33.53-15.47L33.53-15.47Q33.82-15.71 34.32-15.93Q34.82-16.14 35.26-16.14L35.26-16.14Q35.50-16.14 35.40-15.90L35.40-15.90Q34.30-14.56 33.50-12.93Q32.71-11.30 32.28-9.76Q31.85-8.22 31.73-7.05Q31.61-5.87 31.90-5.44L31.90-5.44Q32.14-5.10 32.76-5.42Q33.38-5.73 34.39-7.02ZM26.04-5.63L26.04-5.63Q26.57-5.63 27.41-6.38Q28.25-7.12 29.16-8.32Q30.07-9.52 30.96-11.03Q31.85-12.54 32.52-14.08L32.52-14.08Q32.33-14.70 31.63-15.09Q30.94-15.47 30.02-15.47L30.02-15.47Q28.97-15.47 28.03-14.92Q27.10-14.37 26.38-13.38Q25.66-12.40 25.22-11.06Q24.79-9.71 24.79-8.08L24.79-8.08Q24.79-7.02 25.15-6.33Q25.51-5.63 26.04-5.63ZM49.08-7.07L49.08-7.07Q49.22-7.17 49.37-7.07Q49.51-6.98 49.46-6.78L49.46-6.78Q48.65-5.68 47.66-4.84Q46.68-4 45.82-4L45.82-4Q44.33-4 44.33-5.92L44.33-5.92Q44.33-7.55 44.90-9.54Q45.48-11.54 46.49-13.55L46.49-13.55Q46.68-13.89 46.68-14.22L46.68-14.22Q46.68-14.75 46.20-14.75L46.20-14.75Q44.42-14.75 42.29-12.30Q40.15-9.86 38.33-4.62L38.33-4.62Q38.23-4.34 37.80-4.17Q37.37-4 36.98-4L36.98-4Q36.46-4 36.60-4.43L36.60-4.43Q37.42-6.50 38.30-9.09Q39.19-11.68 39.86-14.22L39.86-14.22Q40.06-15.14 39.53-15.14L39.53-15.14Q39.05-15.14 38.57-14.66Q38.09-14.18 37.56-13.41L37.56-13.41Q37.46-13.31 37.34-13.46Q37.22-13.60 37.27-13.74L37.27-13.74Q37.80-14.56 38.71-15.42Q39.62-16.29 40.68-16.29L40.68-16.29Q41.88-16.29 41.50-14.66L41.50-14.66Q41.30-13.60 40.97-12.42Q40.63-11.25 40.25-10.10L40.25-10.10Q40.92-11.39 41.83-12.54Q42.74-13.70 43.73-14.51Q44.71-15.33 45.70-15.81Q46.68-16.29 47.54-16.29L47.54-16.29Q48.12-16.29 48.43-16Q48.74-15.71 48.74-15.33L48.74-15.33Q48.74-14.70 48.46-14.08L48.46-14.08Q47.45-12.26 46.75-10.26Q46.06-8.27 46.06-6.59L46.06-6.59Q46.06-5.39 46.82-5.39L46.82-5.39Q47.83-5.39 49.08-7.07ZM54.41-4.67L54.41-4.67Q53.74-4.38 53.06-4.19Q52.39-4 51.86-4L51.86-4Q51.29-4 51.58-4.62L51.58-4.62Q52.39-6.64 52.97-9.02Q53.54-11.39 53.74-13.26L53.74-13.26Q53.88-14.94 53.21-14.94L53.21-14.94Q52.54-14.94 51.43-13.84L51.43-13.84Q51.19-13.74 51.05-13.89Q50.90-14.03 51.05-14.22L51.05-14.22Q52.15-15.33 52.99-15.81Q53.83-16.29 54.55-16.29L54.55-16.29Q55.13-16.29 55.34-15.86Q55.56-15.42 55.56-14.75L55.56-14.75Q55.56-13.84 55.37-12.59Q55.18-11.34 54.86-9.98Q54.55-8.61 54.17-7.29Q53.78-5.97 53.45-4.91L53.45-4.91Q54.79-5.25 56.14-6.16Q57.48-7.07 58.54-8.27Q59.59-9.47 60.24-10.89Q60.89-12.30 60.89-13.74L60.89-13.74Q60.89-14.99 60.07-14.99L60.07-14.99Q59.40-14.99 58.87-14.22L58.87-14.22Q58.73-14.13 58.63-14.27Q58.54-14.42 58.58-14.56L58.58-14.56Q58.97-15.18 59.66-15.74Q60.36-16.29 61.03-16.29L61.03-16.29Q61.56-16.29 61.92-15.81Q62.28-15.33 62.28-14.37L62.28-14.37Q62.28-12.98 61.68-11.58Q61.08-10.19 60.02-8.90Q58.97-7.60 57.53-6.50Q56.09-5.39 54.41-4.67ZM72.41-14.18L72.41-14.18Q72.41-13.50 71.88-12.93Q71.35-12.35 70.44-11.90Q69.53-11.44 68.35-11.06Q67.18-10.67 65.88-10.34L65.88-10.34Q65.83-9.81 65.81-9.28Q65.78-8.75 65.78-8.13L65.78-8.13Q65.78-6.93 66.31-6.11Q66.84-5.30 67.80-5.30L67.80-5.30Q68.76-5.30 69.60-5.78Q70.44-6.26 71.11-7.07L71.11-7.07Q71.30-7.17 71.40-7.02Q71.50-6.88 71.40-6.69L71.40-6.69Q70.58-5.58 69.36-4.79Q68.14-4 66.79-4L66.79-4Q65.54-4 64.75-4.82Q63.96-5.63 63.96-7.22L63.96-7.22Q63.96-8.66 64.49-10.26Q65.02-11.87 65.88-13.22Q66.74-14.56 67.87-15.42Q69.00-16.29 70.25-16.29L70.25-16.29Q71.16-16.29 71.78-15.64Q72.41-14.99 72.41-14.18ZM69.24-15.04L69.24-15.04Q68.14-15.04 67.27-14.08Q66.41-13.12 66.02-11.06L66.02-11.06Q68.33-11.39 69.41-12.04Q70.49-12.69 70.49-13.50L70.49-13.50Q70.49-14.18 70.15-14.61Q69.82-15.04 69.24-15.04ZM82.30-14.18L82.30-14.18Q82.30-13.50 81.77-12.93Q81.24-12.35 80.33-11.90Q79.42-11.44 78.24-11.06Q77.06-10.67 75.77-10.34L75.77-10.34Q75.72-9.81 75.70-9.28Q75.67-8.75 75.67-8.13L75.67-8.13Q75.67-6.93 76.20-6.11Q76.73-5.30 77.69-5.30L77.69-5.30Q78.65-5.30 79.49-5.78Q80.33-6.26 81.00-7.07L81.00-7.07Q81.19-7.17 81.29-7.02Q81.38-6.88 81.29-6.69L81.29-6.69Q80.47-5.58 79.25-4.79Q78.02-4 76.68-4L76.68-4Q75.43-4 74.64-4.82Q73.85-5.63 73.85-7.22L73.85-7.22Q73.85-8.66 74.38-10.26Q74.90-11.87 75.77-13.22Q76.63-14.56 77.76-15.42Q78.89-16.29 80.14-16.29L80.14-16.29Q81.05-16.29 81.67-15.64Q82.30-14.99 82.30-14.18ZM79.13-15.04L79.13-15.04Q78.02-15.04 77.16-14.08Q76.30-13.12 75.91-11.06L75.91-11.06Q78.22-11.39 79.30-12.04Q80.38-12.69 80.38-13.50L80.38-13.50Q80.38-14.18 80.04-14.61Q79.70-15.04 79.13-15.04ZM88.10-14.94L88.10-14.94Q88.10-14.22 87.96-13.26Q87.82-12.30 87.58-11.34L87.58-11.34Q88.54-13.65 89.69-14.97Q90.84-16.29 92.18-16.29L92.18-16.29Q92.71-16.29 93.14-16Q93.58-15.71 93.58-15.18L93.58-15.18Q93.58-14.80 93.29-14.20Q93.00-13.60 92.71-13.31L92.71-13.31Q92.42-13.12 92.42-13.46L92.42-13.46Q92.42-14.27 91.32-14.27L91.32-14.27Q89.64-14.27 88.30-11.75Q86.95-9.23 85.75-4.77L85.75-4.77Q85.66-4.29 85.10-4.14Q84.55-4 84.17-4L84.17-4Q83.64-4 83.93-4.53L83.93-4.53Q84.36-5.54 84.74-6.71Q85.13-7.89 85.49-9.09Q85.85-10.29 86.09-11.44Q86.33-12.59 86.47-13.55L86.47-13.55Q86.66-14.99 85.99-14.99L85.99-14.99Q85.61-14.99 85.10-14.56Q84.60-14.13 84.17-13.55L84.17-13.55Q83.98-13.46 83.83-13.58Q83.69-13.70 83.78-13.89L83.78-13.89Q84.50-14.80 85.39-15.54Q86.28-16.29 87.05-16.29L87.05-16.29Q88.10-16.29 88.10-14.94ZM109.70-28L109.70-28Q111.00-28 111.79-27.02Q112.58-26.03 112.63-24.59L112.63-24.59Q112.54-24.40 112.39-24.38Q112.25-24.35 112.15-24.45L112.15-24.45Q111.58-25.41 110.66-25.94Q109.75-26.46 108.22-26.46L108.22-26.46Q106.34-26.46 104.69-25.65Q103.03-24.83 101.62-23.34Q100.20-21.86 99.05-19.77Q97.90-17.68 96.98-15.14L96.98-15.14Q97.85-16.38 99.22-17.20Q100.58-18.02 102.22-18.02L102.22-18.02Q103.75-18.02 104.69-16.74Q105.62-15.47 105.62-13.65L105.62-13.65Q105.62-11.92 104.88-10.19Q104.14-8.46 102.94-7.10Q101.74-5.73 100.27-4.86Q98.81-4 97.37-4L97.37-4Q95.69-4 94.87-5.32Q94.06-6.64 94.06-9.18L94.06-9.18Q94.06-10.96 94.66-13.05Q95.26-15.14 96.29-17.22Q97.32-19.31 98.78-21.26Q100.25-23.20 102.00-24.71Q103.75-26.22 105.70-27.11Q107.64-28 109.70-28ZM100.73-16.43L100.73-16.43Q99.82-16.43 98.95-15.95Q98.09-15.47 97.39-14.61Q96.70-13.74 96.29-12.57Q95.88-11.39 95.88-10.05L95.88-10.05Q95.88-7.50 96.65-6.50Q97.42-5.49 98.95-5.49L98.95-5.49Q99.72-5.49 100.56-5.94Q101.40-6.40 102.10-7.29Q102.79-8.18 103.22-9.50Q103.66-10.82 103.66-12.59L103.66-12.59Q103.66-14.27 102.96-15.35Q102.26-16.43 100.73-16.43ZM114.60-19.02L114.60-19.02Q116.38-19.02 117.31-18.04Q118.25-17.06 118.25-15.90L118.25-15.90Q118.25-13.60 116.62-12.26Q114.98-10.91 111.77-9.62L111.77-9.62Q112.78-9.90 113.71-9.69Q114.65-9.47 115.37-8.87Q116.09-8.27 116.50-7.36Q116.90-6.45 116.90-5.44L116.90-5.44Q116.90-3.57 115.99-1.89Q115.08-0.21 113.59 1.04Q112.10 2.29 110.14 3.03Q108.17 3.78 106.10 3.78L106.10 3.78Q104.57 3.78 103.90 2.94Q103.22 2.10 103.13 0.51L103.13 0.51Q103.22 0.37 103.42 0.32Q103.61 0.27 103.70 0.42L103.70 0.42Q104.42 2.62 107.64 2.62L107.64 2.62Q109.13 2.62 110.45 2.14Q111.77 1.66 112.75 0.82Q113.74-0.02 114.31-1.17Q114.89-2.32 114.89-3.66L114.89-3.66Q114.89-6.26 113.81-7.53Q112.73-8.80 110.71-8.80L110.71-8.80Q109.56-8.80 108.65-8.18L108.65-8.18Q108.41-8.18 108.31-8.39Q108.22-8.61 108.36-8.85L108.36-8.85Q110.57-9.76 112.08-10.43Q113.59-11.10 114.53-11.78Q115.46-12.45 115.87-13.19Q116.28-13.94 116.28-14.99L116.28-14.99Q116.28-16.24 115.54-17.08Q114.79-17.92 113.45-17.92L113.45-17.92Q112.20-17.92 111.38-17.39Q110.57-16.86 110.04-15.90L110.04-15.90Q109.90-15.76 109.66-15.90Q109.42-16.05 109.51-16.29L109.51-16.29Q110.09-17.39 111.34-18.21Q112.58-19.02 114.60-19.02ZM127.66-19.02L127.66-19.02Q129.29-19.02 130.15-18.04Q131.02-17.06 131.02-15.76L131.02-15.76Q131.02-14.32 130.42-13.17Q129.82-12.02 128.66-10.96Q127.51-9.90 125.83-8.82Q124.15-7.74 121.99-6.45L121.99-6.45Q123.00-6.11 124.34-5.85Q125.69-5.58 127.32-5.58L127.32-5.58Q129.19-5.58 129.86-6.78L129.86-6.78Q130.06-6.98 130.22-6.81Q130.39-6.64 130.30-6.30L130.30-6.30Q129.62-5.20 128.66-4.60Q127.70-4 126.26-4L126.26-4Q124.92-4 123.91-4.26Q122.90-4.53 122.11-4.77Q121.32-5.01 120.67-5.08Q120.02-5.15 119.40-4.77L119.40-4.77Q118.97-4.53 118.70-4.34Q118.44-4.14 118.20-4L118.20-4Q117.96-4 117.96-4.31Q117.96-4.62 118.20-4.86L118.20-4.86Q120.26-6.26 122.23-7.38Q124.20-8.51 125.74-9.64Q127.27-10.77 128.18-12.04Q129.10-13.31 129.10-14.99L129.10-14.99Q129.10-16.24 128.33-16.91Q127.56-17.58 126.26-17.58L126.26-17.58Q124.73-17.58 123.70-16.53Q122.66-15.47 122.33-13.94L122.33-13.94Q122.18-13.79 121.99-13.94Q121.80-14.08 121.75-14.32L121.75-14.32Q121.94-15.18 122.45-16.02Q122.95-16.86 123.70-17.54Q124.44-18.21 125.45-18.62Q126.46-19.02 127.66-19.02ZM132.12 3.25L132.12 3.25Q130.87 3.25 130.10 2.62Q129.34 2 129.19 0.94L129.19 0.94Q129.24 0.80 129.38 0.70Q129.53 0.61 129.67 0.70L129.67 0.70Q130.15 1.33 130.92 1.64Q131.69 1.95 132.94 1.95L132.94 1.95Q136.34 1.95 138.67-0.35Q141.00-2.66 142.54-8.22L142.54-8.22Q141.58-6.78 140.33-5.90Q139.08-5.01 137.30-5.01L137.30-5.01Q135.38-5.01 134.42-6.21Q133.46-7.41 133.46-9.18L133.46-9.18Q133.46-10.82 134.06-12.54Q134.66-14.27 135.74-15.71Q136.82-17.15 138.31-18.09Q139.80-19.02 141.58-19.02L141.58-19.02Q143.35-19.02 144.48-17.82Q145.61-16.62 145.61-14.80L145.61-14.80Q145.61-11.30 144.46-8.06Q143.30-4.82 141.43-2.30Q139.56 0.22 137.14 1.74Q134.71 3.25 132.12 3.25ZM138.60-6.45L138.60-6.45Q139.56-6.45 140.47-7.07Q141.38-7.70 142.08-8.70Q142.78-9.71 143.18-10.98Q143.59-12.26 143.59-13.60L143.59-13.60Q143.59-15.38 142.80-16.53Q142.01-17.68 140.18-17.68L140.18-17.68Q138.02-17.68 136.70-15.62Q135.38-13.55 135.38-10.19L135.38-10.19Q135.38-8.37 136.15-7.41Q136.92-6.45 138.60-6.45ZM158.81-11.44L158.81-11.44Q159.05-11.34 158.86-11.03Q158.66-10.72 157.94-10.48L157.94-10.48Q157.22-10.24 155.88-9.81Q154.54-9.38 153.02-8.90Q151.51-8.42 150.00-7.94Q148.49-7.46 147.38-7.12L147.38-7.12Q147.10-7.22 147.34-7.65Q147.58-8.08 148.25-8.32L148.25-8.32Q148.73-8.46 149.76-8.78Q150.79-9.09 152.02-9.50Q153.24-9.90 154.49-10.31Q155.74-10.72 156.70-11.06L156.70-11.06Q155.30-11.73 153.38-12.57Q151.46-13.41 149.78-14.22L149.78-14.22Q149.54-14.42 149.90-14.75Q150.26-15.09 150.89-14.99L150.89-14.99Q151.56-14.70 152.59-14.22Q153.62-13.74 154.75-13.24Q155.88-12.74 156.96-12.26Q158.04-11.78 158.81-11.44Z"></path></g></g></svg>