<svg version="1.1" xmlns="http://www.w3.org/2000/svg" xmlns:xlink="http://www.w3.org/1999/xlink" width="158.6199951171875" height="22.669998168945312"><defs></defs><g transform="translate(-78.46578216552734,15.639999389648438)"><rect fill="rgb(255,255,255)" stroke="none" x="0" y="0" width="158.6199951171875" height="22.669998168945312" fill-opacity="0" transform="translate(78.46578216552734,-15.639999389648438)"></rect><g transform="translate(79.67578125,11.5) rotate(0,0,0) translate(-79.67578125,-11.5) matrix(1,0,0,1,79.67578125,11.5)"><path fill="rgb(0,0,0)" fill-opacity="1" d="M16.20-22.20L16.20-22.20Q16.36-22.20 16.36-21.62Q16.36-21.05 16.08-20.28Q15.81-19.51 15.34-18.81Q14.87-18.11 14.25-17.50Q13.63-16.90 12.93-16.46L12.93-16.46Q11.43-15.53 10.21-15.53Q9.00-15.53 8.39-16.12Q7.79-16.72 7.79-17.57Q7.79-18.43 8.25-19.25Q8.71-20.07 9.53-20.87L9.53-20.87Q11.39-22.61 13.99-23.49L13.99-23.49Q15.99-24.15 19.18-24.15L19.18-24.15Q21.20-24.15 23.08-23.74L23.08-23.74Q24.67-23.46 25.76-23.46Q26.85-23.46 27.64-23.66Q28.42-23.87 29.10-24.21L29.10-24.21Q30.55-24.95 31.17-25.92L31.17-25.92Q31.31-26.16 31.45-26.16Q31.59-26.16 31.59-25.99Q31.59-25.82 31.09-25.21Q30.59-24.61 29.76-24.07Q28.93-23.53 27.91-23.13L27.91-23.13Q25.76-22.31 23.41-22.31L23.41-22.31Q21.94-22.31 20.20-22.68L20.20-22.68Q17.49-23.23 16.24-23.23Q14.99-23.23 14.09-22.98Q13.20-22.74 12.35-22.32Q11.50-21.90 10.74-21.35Q9.99-20.80 9.42-20.17L9.42-20.17Q8.19-18.81 8.19-17.62L8.19-17.62Q8.19-16.52 9.18-16.11L9.18-16.11Q9.51-15.98 10.00-15.98Q10.50-15.98 11.13-16.29Q11.76-16.59 12.39-17.09Q13.03-17.60 13.64-18.23Q14.25-18.86 14.74-19.51L14.74-19.51Q15.82-20.94 16.03-21.84L16.03-21.84Q16.12-22.20 16.20-22.20ZM0.82-7.43Q0.82-7.15 0.59-6.93Q0.36-6.72-0.02-6.72Q-0.41-6.72-0.65-6.86L-0.65-6.86L-0.65-6.78Q-0.65-5.42 1.29-5.04L1.29-5.04Q1.89-4.92 2.76-4.92Q3.63-4.92 4.76-5.31Q5.89-5.70 7.01-6.48L7.01-6.48Q9.39-8.14 11.36-11.24L11.36-11.24Q11.98-12.22 12.78-13.22L12.78-13.22L14.52-15.36Q16.73-17.91 18.94-19.76L18.94-19.76Q20.85-21.36 21.37-21.36L21.37-21.36Q21.57-21.36 21.57-21.24L21.57-21.24Q21.57-21.09 21.17-20.84Q20.78-20.58 20.39-20.30Q20.00-20.02 19.65-19.69Q19.30-19.37 18.96-18.96Q18.62-18.56 18.21-17.99Q17.80-17.43 17.29-16.65L17.29-16.65L16.10-14.83Q9.42-4.53 2.45-4.53L2.45-4.53Q0.94-4.53-0.10-5.15L-0.10-5.15Q-1.21-5.83-1.21-6.89L-1.21-6.89Q-1.21-7.46-0.89-7.70L-0.89-7.70Q-0.41-8.08-0.04-8.08L-0.04-8.08Q0.82-8.08 0.82-7.43L0.82-7.43ZM24.20-4.53L24.20-4.53Q22.79-4.53 22.79-5.40L22.79-5.40Q22.79-6.13 23.61-7.22L23.61-7.22L24.50-8.35L24.36-8.41Q21.98-5.47 19.87-4.72L19.87-4.72Q19.29-4.53 18.86-4.53L18.86-4.53Q17.12-4.53 17.12-6.38L17.12-6.38Q17.12-8.56 18.86-10.54L18.86-10.54Q21.44-13.55 24.05-14.10L24.05-14.10Q24.83-14.25 25.38-14.25Q25.93-14.25 26.25-14.18Q26.57-14.10 26.81-13.96L26.81-13.96Q27.32-13.63 27.32-13.16Q27.32-12.68 27.15-12.26L27.15-12.26L28.54-13.97Q28.92-13.86 29.24-13.86L29.24-13.86Q30.08-13.86 30.45-13.91L30.45-13.91L25.68-8.17Q23.98-6.18 23.98-5.38L23.98-5.38Q23.98-4.92 24.51-4.92Q25.05-4.92 25.75-5.25Q26.45-5.57 27.15-6.08Q27.84-6.59 28.50-7.22Q29.16-7.84 29.72-8.43Q30.28-9.03 30.70-9.54L30.70-9.54L31.38-10.30L31.68-10.06L30.96-9.24Q26.88-4.53 24.20-4.53ZM20.28-9.62L20.28-9.62Q18.28-7.20 18.28-5.66L18.28-5.66Q18.28-4.95 18.92-4.95L18.92-4.95Q20.99-4.95 24.88-9.52L24.88-9.52L26.07-10.95Q26.92-12.24 26.92-12.82L26.92-12.82Q26.92-13.82 25.93-13.82L25.93-13.82Q24.59-13.82 22.07-11.52L22.07-11.52Q21.20-10.73 20.28-9.62ZM33.11-6.55L31.79-4.82Q31.41-4.89 30.94-4.89L30.94-4.89Q30.19-4.89 29.63-4.75L29.63-4.75L34.54-11.78Q35.46-13.06 35.49-13.31L35.49-13.31Q35.55-13.77 35.19-13.77L35.19-13.77Q34.67-13.77 32.59-11.18L32.59-11.18L31.68-10.06Q31.57-10.01 31.45-10.13Q31.33-10.25 31.38-10.30L31.38-10.30Q31.79-10.74 32.31-11.42Q32.83-12.09 33.39-12.71L33.39-12.71Q34.78-14.25 35.70-14.25L35.70-14.25Q37.26-14.25 36.69-12.65L36.69-12.65Q36.58-12.31 36.20-11.78L36.20-11.78L33.22-7.64L33.29-7.49Q36.86-11.39 38.36-12.65L38.36-12.65Q39.79-13.84 40.49-14.05Q41.20-14.25 41.64-14.25Q42.09-14.25 42.41-14.13Q42.72-14.00 42.92-13.80L42.92-13.80Q43.29-13.43 43.28-12.92Q43.28-12.40 43.09-11.86Q42.89-11.32 42.44-10.59L42.44-10.59Q41.49-9.07 39.24-6.64L39.24-6.64Q38.31-5.66 38.26-5.50Q38.22-5.33 38.22-5.25L38.22-5.25Q38.22-4.92 39.09-4.92Q39.96-4.92 40.72-5.28Q41.48-5.64 42.21-6.20Q42.94-6.75 43.60-7.41Q44.25-8.07 44.78-8.67Q45.30-9.27 45.66-9.72Q46.01-10.16 46.14-10.30L46.14-10.30L46.43-10.06Q46.29-9.91 45.93-9.44Q45.56-8.97 45.01-8.36Q44.47-7.75 43.78-7.07Q43.09-6.40 42.33-5.83L42.33-5.83Q40.54-4.53 39.10-4.53L39.10-4.53Q37.83-4.53 37.33-5.16L37.33-5.16Q37.17-5.36 37.17-5.63Q37.17-5.90 37.25-6.25Q37.33-6.59 37.63-7.13L37.63-7.13Q38.29-8.28 39.52-9.65Q40.74-11.03 41.12-11.51Q41.51-11.99 41.73-12.34L41.73-12.34Q42.16-13.02 42.16-13.39L42.16-13.39Q42.16-13.90 41.48-13.90L41.48-13.90Q40.08-13.90 36.85-10.73L36.85-10.73Q35.22-9.14 33.11-6.55L33.11-6.55ZM47.58-12.17L49.56-14.17Q50.24-14.08 50.82-14.08Q51.41-14.08 51.79-14.13L51.79-14.13Q50.53-12.99 49.90-12.29L49.90-12.29L48.01-10.19Q47.78-9.94 47.41-9.57L47.41-9.57L45.81-7.87Q44.30-6.21 44.30-5.64Q44.30-5.08 44.51-4.99Q44.72-4.89 45.29-4.89Q45.87-4.89 46.76-5.23Q47.65-5.56 48.57-6.10L48.57-6.10Q50.24-7.07 51.57-8.24Q52.89-9.41 53.36-10.01Q53.83-10.60 54.07-11.15L54.07-11.15Q54.46-12.06 54.46-13.40L54.46-13.40Q54.46-13.93 54.79-14.26Q55.11-14.59 55.58-14.59L55.58-14.59Q56.38-14.59 56.38-13.82L56.38-13.82Q56.38-12.20 53.56-9.47L53.56-9.47L53.18-9.11Q52.30-7.92 52.72-7.44L52.72-7.44Q52.88-7.29 53.31-7.29Q53.74-7.29 54.35-7.64Q54.96-8.00 55.55-8.48Q56.13-8.97 56.63-9.48L56.63-9.48L57.41-10.30L57.71-10.06Q54.80-6.93 53.15-6.93L53.15-6.93Q52.45-6.93 52.28-7.34Q52.10-7.75 52.41-8.43L52.41-8.43Q49.34-5.86 46.69-4.89L46.69-4.89Q45.71-4.53 44.91-4.53Q44.10-4.53 43.70-4.84Q43.31-5.16 43.31-5.62Q43.31-6.08 43.40-6.46Q43.50-6.83 43.80-7.36L43.80-7.36Q44.34-8.32 45.51-9.78Q46.68-11.24 47.58-12.17L47.58-12.17ZM62.78-5.78Q61.88-5.21 60.84-4.84Q59.80-4.47 58.87-4.47Q57.93-4.47 57.44-4.66Q56.96-4.85 56.64-5.19L56.64-5.19Q55.31-6.64 56.66-9.45L56.66-9.45Q57.24-10.70 58.41-11.73Q59.59-12.75 60.48-13.26L60.48-13.26Q62.21-14.25 63.72-14.25L63.72-14.25Q65.23-14.25 65.30-13.32L65.30-13.32Q65.40-11.80 61.61-10.02L61.61-10.02Q60.23-9.37 58.12-8.68L58.12-8.68Q57.28-7.32 57.28-6.46Q57.28-5.60 57.73-5.24Q58.17-4.88 59.03-4.88Q59.89-4.88 60.89-5.25Q61.88-5.62 62.75-6.18Q63.63-6.75 64.33-7.41Q65.04-8.08 65.59-8.69Q66.13-9.30 66.48-9.74Q66.83-10.19 66.95-10.30L66.95-10.30L67.25-10.06Q67.07-9.91 66.69-9.43Q66.32-8.94 65.74-8.33Q65.17-7.71 64.43-7.03Q63.68-6.35 62.78-5.78ZM58.44-9.17L58.44-9.17Q62.72-10.67 63.95-12.16L63.95-12.16Q64.36-12.65 64.36-13.12L64.36-13.12Q64.36-13.91 63.63-13.91L63.63-13.91Q62.32-13.91 60.37-11.63L60.37-11.63Q59.01-10.05 58.44-9.17ZM72.33-5.78Q71.43-5.21 70.39-4.84Q69.35-4.47 68.41-4.47Q67.48-4.47 66.99-4.66Q66.50-4.85 66.19-5.19L66.19-5.19Q64.86-6.64 66.20-9.45L66.20-9.45Q66.78-10.70 67.96-11.73Q69.13-12.75 70.03-13.26L70.03-13.26Q71.75-14.25 73.27-14.25L73.27-14.25Q74.77-14.25 74.84-13.32L74.84-13.32Q74.94-11.80 71.16-10.02L71.16-10.02Q69.77-9.37 67.66-8.68L67.66-8.68Q66.83-7.32 66.83-6.46Q66.83-5.60 67.27-5.24Q67.72-4.88 68.57-4.88Q69.43-4.88 70.43-5.25Q71.43-5.62 72.30-6.18Q73.17-6.75 73.88-7.41Q74.59-8.08 75.13-8.69Q75.68-9.30 76.02-9.74Q76.37-10.19 76.50-10.30L76.50-10.30L76.79-10.06Q76.61-9.91 76.23-9.43Q75.86-8.94 75.29-8.33Q74.71-7.71 73.97-7.03Q73.23-6.35 72.33-5.78ZM67.99-9.17L67.99-9.17Q72.26-10.67 73.49-12.16L73.49-12.16Q73.91-12.65 73.91-13.12L73.91-13.12Q73.91-13.91 73.17-13.91L73.17-13.91Q71.87-13.91 69.91-11.63L69.91-11.63Q68.55-10.05 67.99-9.17ZM78.85-5.67Q78.85-5.01 79.41-5.01Q79.97-5.01 80.64-5.35Q81.31-5.69 82.01-6.21Q82.71-6.74 83.39-7.37L83.39-7.37L84.62-8.60Q85.19-9.18 85.60-9.65L85.60-9.65L86.18-10.30L86.47-10.06Q86.20-9.82 85.74-9.31L85.74-9.31L84.72-8.18Q81.27-4.53 78.78-4.53L78.78-4.53Q77.97-4.53 77.48-4.92Q76.99-5.32 76.99-5.98L76.99-5.98Q76.99-8.09 83.14-12.22L83.14-12.22Q80.14-12.71 78.99-13.22L78.99-13.22Q78.05-11.29 76.11-9.30L76.11-9.30Q75.66-8.83 75.56-8.79Q75.45-8.75 75.42-8.72Q75.39-8.70 75.38-8.80Q75.36-8.90 75.38-8.95Q75.39-9.00 75.43-9.06L75.43-9.06Q76.10-9.81 76.67-10.50L76.67-10.50Q77.98-12.14 78.61-13.42L78.61-13.42Q78.10-13.74 78.03-14.11Q77.96-14.48 78.03-14.80Q78.11-15.12 78.28-15.37L78.28-15.37Q78.65-15.93 79.13-15.93L79.13-15.93Q80.02-15.93 80.02-15.27L80.02-15.27Q80.02-14.95 79.90-14.72L79.90-14.72L79.64-14.28Q79.39-13.96 79.39-13.53L79.39-13.53Q79.39-13.28 80.47-13.05Q81.55-12.82 82.01-12.74L82.01-12.74Q83.00-12.55 83.58-12.53L83.58-12.53Q83.97-12.51 83.97-12.31L83.97-12.31Q83.97-12.19 83.51-11.82Q83.05-11.45 82.50-10.93Q81.95-10.40 81.42-9.83Q80.90-9.26 80.43-8.66Q79.97-8.07 79.61-7.51L79.61-7.51Q78.85-6.32 78.85-5.67ZM106.66-7.37L106.66-7.37Q104.65-7.37 102.92-7.91L102.92-7.91Q100.94-6.27 99.95-5.63L99.95-5.63Q98.11-4.48 96.19-4.48L96.19-4.48Q94.01-4.48 93.38-5.74L93.38-5.74Q93.19-6.13 93.19-6.49Q93.19-6.86 93.32-7.09Q93.45-7.32 93.63-7.44L93.63-7.44Q94.01-7.71 94.52-7.71L94.52-7.71Q95.23-7.71 95.23-7.07L95.23-7.07Q95.23-6.79 95.00-6.59Q94.76-6.38 94.36-6.38Q93.96-6.38 93.76-6.52L93.76-6.52L93.76-6.42Q93.76-4.87 96.31-4.87L96.31-4.87Q98.08-4.87 100.31-6.42L100.31-6.42L102.42-8.08Q100.41-8.83 99.21-10.20L99.21-10.20Q98.05-11.51 97.96-13.08L97.96-13.08Q97.88-14.62 98.98-15.71L98.98-15.71Q100.14-16.86 102.13-16.86L102.13-16.86Q104.89-16.86 106.77-14.49L106.77-14.49Q107.34-13.77 107.73-12.95L107.73-12.95Q112.28-17.31 113.68-18.56L113.68-18.56L116.00-20.57Q120.70-24.44 122.93-24.44L122.93-24.44Q123.18-24.44 123.18-24.35L123.18-24.35Q123.18-24.25 122.95-24.17Q122.72-24.08 122.43-23.80Q122.15-23.51 121.61-22.85L121.61-22.85L120.22-21.08L110.64-8.34Q114.59-9.51 116.80-12.54L116.80-12.54Q117.50-13.50 117.75-14.16L117.75-14.16Q118.07-15.02 118.14-15.02L118.14-15.02Q118.18-15.02 118.28-14.90Q118.37-14.78 118.35-14.39Q118.33-14.00 118.14-13.47Q117.96-12.94 117.67-12.46L117.67-12.46Q117.21-11.65 116.13-10.63L116.13-10.63Q113.96-8.52 110.18-7.74L110.18-7.74L107.76-4.54L106.86-4.60Q106.40-4.63 106.14-4.63Q105.88-4.63 105.70-4.60L105.70-4.60L105.30-4.54L107.39-7.13Q107.44-7.20 107.48-7.27Q107.52-7.33 107.55-7.40L107.55-7.40Q107.10-7.37 106.66-7.37ZM112.49-16.90L107.93-12.51Q108.51-11.03 108.51-9.96Q108.51-8.90 108.34-8.29L108.34-8.29L113.60-14.65Q118.79-20.70 120.04-22.02Q121.29-23.34 121.88-23.90L121.88-23.90L120.93-23.50Q119.02-22.67 115.47-19.59L115.47-19.59L112.49-16.90ZM102.76-8.36L102.76-8.36Q105.53-10.83 107.41-12.65L107.41-12.65Q106.23-15.33 103.83-16.17L103.83-16.17Q103.02-16.43 102.25-16.43Q101.48-16.43 100.87-16.16Q100.27-15.88 99.82-15.43L99.82-15.43Q98.84-14.45 98.84-13.11L98.84-13.11Q98.84-10.74 101.05-9.21L101.05-9.21Q101.79-8.70 102.76-8.36ZM103.26-8.21L103.26-8.21Q104.82-7.77 106.74-7.77L106.74-7.77Q107.24-7.77 107.73-7.81L107.73-7.81Q108.06-8.65 108.06-9.43L108.06-9.43Q108.06-10.87 107.59-12.19L107.59-12.19Q104.41-9.18 103.26-8.21ZM116.13-5.39L116.13-5.39Q116.13-4.92 116.81-4.92Q117.49-4.92 118.26-5.28Q119.03-5.64 119.79-6.20Q120.55-6.75 121.26-7.41Q121.97-8.07 122.55-8.66L122.55-8.66L123.52-9.71Q123.92-10.16 124.06-10.30L124.06-10.30L124.34-10.06Q124.19-9.91 123.77-9.44Q123.35-8.97 122.75-8.36Q122.15-7.75 121.41-7.07Q120.66-6.40 119.86-5.83L119.86-5.83Q117.97-4.53 116.56-4.53L116.56-4.53Q115.96-4.53 115.57-4.85Q115.18-5.18 115.18-5.55Q115.18-5.93 115.22-6.15Q115.25-6.38 115.37-6.67Q115.48-6.96 115.69-7.35Q115.90-7.74 116.26-8.29L116.26-8.29L118.43-11.49L129.37-27.14Q130.39-27.00 131.34-27.14L131.34-27.14Q117.83-8.36 117.35-7.65Q116.87-6.93 116.64-6.57Q116.41-6.21 116.30-5.98L116.30-5.98Q116.13-5.64 116.13-5.39ZM129.61-4.53L129.61-4.53Q128.20-4.53 128.20-5.40L128.20-5.40Q128.20-6.13 129.02-7.22L129.02-7.22L129.91-8.35L129.77-8.41Q127.39-5.47 125.28-4.72L125.28-4.72Q124.70-4.53 124.27-4.53L124.27-4.53Q122.53-4.53 122.53-6.38L122.53-6.38Q122.53-8.56 124.27-10.54L124.27-10.54Q126.85-13.55 129.46-14.10L129.46-14.10Q130.23-14.25 130.79-14.25Q131.34-14.25 131.66-14.18Q131.98-14.10 132.22-13.96L132.22-13.96Q132.73-13.63 132.73-13.16Q132.73-12.68 132.56-12.26L132.56-12.26L133.94-13.97Q134.33-13.86 134.65-13.86L134.65-13.86Q135.49-13.86 135.86-13.91L135.86-13.91L131.08-8.17Q129.39-6.18 129.39-5.38L129.39-5.38Q129.39-4.92 129.92-4.92Q130.46-4.92 131.16-5.25Q131.86-5.57 132.56-6.08Q133.25-6.59 133.91-7.22Q134.57-7.84 135.13-8.43Q135.69-9.03 136.11-9.54L136.11-9.54L136.79-10.30L137.09-10.06L136.37-9.24Q132.29-4.53 129.61-4.53ZM125.69-9.62L125.69-9.62Q123.69-7.20 123.69-5.66L123.69-5.66Q123.69-4.95 124.33-4.95L124.33-4.95Q126.40-4.95 130.29-9.52L130.29-9.52L131.48-10.95Q132.33-12.24 132.33-12.82L132.33-12.82Q132.33-13.82 131.34-13.82L131.34-13.82Q129.99-13.82 127.47-11.52L127.47-11.52Q126.61-10.73 125.69-9.62ZM138.50-6.55L137.19-4.82Q136.86-4.89 136.37-4.89L136.37-4.89Q135.50-4.89 135.03-4.75L135.03-4.75L139.95-11.78Q140.87-13.06 140.90-13.31L140.90-13.31Q140.95-13.77 140.60-13.77L140.60-13.77Q140.08-13.77 137.99-11.18L137.99-11.18L137.09-10.06Q136.97-10.01 136.85-10.13Q136.73-10.25 136.79-10.30L136.79-10.30Q137.20-10.74 137.72-11.42Q138.24-12.09 138.80-12.71L138.80-12.71Q140.19-14.25 141.11-14.25L141.11-14.25Q142.67-14.25 142.10-12.65L142.10-12.65Q141.99-12.31 141.61-11.78L141.61-11.78L138.63-7.64L138.70-7.49Q142.51-11.89 144.30-13.18L144.30-13.18Q145.71-14.25 146.92-14.25L146.92-14.25Q147.74-14.25 148.22-13.80L148.22-13.80Q148.60-13.42 148.58-12.99Q148.56-12.57 148.52-12.35Q148.49-12.13 148.42-11.90L148.42-11.90Q148.25-11.44 147.82-10.77L147.82-10.77Q150.85-13.86 152.41-14.18L152.41-14.18Q152.72-14.25 153.10-14.25Q153.47-14.25 153.79-14.13Q154.11-14.00 154.31-13.80L154.31-13.80Q154.68-13.43 154.67-12.92Q154.66-12.40 154.47-11.86Q154.28-11.32 153.83-10.59L153.83-10.59Q152.88-9.07 150.63-6.64L150.63-6.64Q149.69-5.66 149.65-5.50Q149.61-5.33 149.61-5.25L149.61-5.25L149.51-5.23Q149.51-4.89 150.31-4.89Q151.12-4.89 151.79-5.26Q152.47-5.62 153.16-6.18Q153.85-6.74 154.51-7.40Q155.17-8.07 155.71-8.66L155.71-8.66L156.61-9.71Q156.98-10.16 157.11-10.30L157.11-10.30L157.41-10.06Q157.27-9.92 156.88-9.45Q156.49-8.97 155.93-8.35Q155.37-7.73 154.68-7.05Q153.98-6.37 153.24-5.80L153.24-5.80Q151.53-4.48 150.37-4.48L150.37-4.48Q149.14-4.48 148.63-5.14L148.63-5.14Q148.47-5.33 148.47-5.60Q148.47-5.87 148.56-6.23Q148.66-6.58 148.98-7.12L148.98-7.12Q149.63-8.22 150.88-9.62Q152.13-11.03 152.50-11.51Q152.88-11.99 153.12-12.34L153.12-12.34Q153.56-13.04 153.56-13.39L153.56-13.39Q153.56-13.90 152.83-13.90L152.83-13.90Q151.42-13.90 147.93-10.36L147.93-10.36Q146.45-8.86 144.62-6.55L144.62-6.55L143.30-4.82Q142.98-4.89 142.48-4.89L142.48-4.89Q141.68-4.89 141.15-4.75L141.15-4.75Q143.25-7.32 143.46-7.58L143.46-7.58Q146.65-11.79 146.99-12.34L146.99-12.34Q147.45-13.15 147.45-13.46L147.45-13.46Q147.45-13.90 146.76-13.90L146.76-13.90Q145.84-13.90 144.61-12.91L144.61-12.91Q142.02-10.84 138.50-6.55L138.50-6.55Z"></path></g></g></svg>